<svg xmlns="http://www.w3.org/2000/svg" width="31" height="32" viewBox="0 0 31 32">
    <defs>
        <linearGradient id="prefix__a" x1="50%" x2="50%" y1="0%" y2="100%">
            <stop offset="0%" stop-color="#18FFFF"/>
            <stop offset="100%" stop-color="#06ACBE"/>
        </linearGradient>
    </defs>
    <g fill="none" fill-rule="evenodd">
        <path fill="#1A4241" d="M30.601 14.87a1.618 1.618 0 010 2.24L16.614 31.508a1.509 1.509 0 01-2.177 0L.451 17.11a1.618 1.618 0 010-2.24L14.437.471a1.509 1.509 0 012.177 0l13.987 14.397z"/>
        <path fill="url(#prefix__a)" d="M20.472 9.32L19.04 15.33c-.229.684-.317.877-.749 1.06l-2.485 1.125a4.902 4.902 0 00-.206 1.414c0 2.637 2.077 4.775 4.639 4.775.6 0 1.175-.117 1.702-.332l-5.528 5.69a1.43 1.43 0 01-1.84.191c-2.079-3.497-2.933-7.14-2.628-10.318l-3.277-.001c-.294.015-.543-.101-.722-.397 0 0-2.65-4.593-2.842-4.966-.19-.373-.065-.847.279-.792L10.665 14c.484.15.666.247.789.576l.799 2.144 1.066-4.29c.09-.453.206-.774.588-.982l5.61-2.683c.517-.273 1.054.06.955.555z"/>
    </g>
</svg>
